<?xml version="1.0" encoding="utf-8"?>
<!-- Generator: Adobe Illustrator 25.2.3, SVG Export Plug-In . SVG Version: 6.00 Build 0)  -->
<svg version="1.1" id="a5bb7047-b418-4789-800d-36ebb8e63785"
	 xmlns="http://www.w3.org/2000/svg" xmlns:xlink="http://www.w3.org/1999/xlink" x="0px" y="0px" viewBox="0 0 256 128.3"
	 style="enable-background:new 0 0 256 128.3;" xml:space="preserve">
<style type="text/css">
	.st0{fill:#F70EF8;}
</style>
<path class="st0" d="M45.4,88.7l-3.6-1.1c0.1-0.3,0.1-0.6-0.1-0.9c-0.4-0.2-0.8-0.4-1.3-0.4c-0.9-0.5-1.8-1.2-2.5-2
	c-0.7-0.8-1.3-1.6-1.9-2.4c-0.5-0.8-0.8-1.5-1.1-2c-0.3-0.5-0.5-1.1-0.6-1.7c0.3-0.4,0.7-0.7,1.1-0.8c0.6-0.5,1.1-0.6,1.5-0.4
	s0.7,0.7,1.2,1.8c0.9,1.5,2.3,2.6,4,3.1c2.1,0.8,4.3,1.1,6.5,1c2.4-0.1,4.7-0.6,6.8-1.6c2.2-0.9,3.7-1.8,4.2-2.8s0.4-2.3-0.7-3.9
	c-0.1-0.5-0.3-0.9-0.6-1.2l-1.1-1.2l-2.5-2.3l-2.5-1.2c-0.8-0.3-1.6-0.7-2.4-1.2c-1.2-0.6-2.4-1.3-3.5-2.1c-1.4-0.9-2.6-2-3.8-3.1
	c-1.1-0.9-2-2-2.7-3.2c-1-1.1-1.8-2.4-2.2-3.8c-0.4-1.7-0.6-3.4-0.5-5.1c0.1-1.7,0.6-3.4,1.4-4.9c0.5-1.1,1.1-2.2,1.8-3.1l3-3.8
	l3.1-3.4c0.8-0.8,1.7-1.5,2.6-2.2l2.3-2.2c0-0.3,0.3-0.5,0.6-0.5l2-0.9c1.2-0.6,2.4-1.4,3.3-2.4c4.1-1.9,7.4-3.3,9.9-4.2
	c2-0.8,4.1-1.3,6.3-1.4c1.4,0.1,2.8,0.4,4.1,1.1c1.2,0.6,2.3,1.5,3.1,2.5c0.8,1.1,1.4,2.4,1.5,3.7c0.4,1.7,0.3,3.4-0.4,5
	c-0.7,1.9-1.7,3.7-2.9,5.3c-1.1,1.6-2.6,2.9-4.3,3.8c-1.7,0.7-2.8,1.1-3.4,1s-0.8-0.7-0.7-1.9c0-0.6,0.2-1.2,0.5-1.7
	c0.7-1.3,1.6-2.5,2.7-3.6c1.6-2.1,2.8-4.4,3.6-6.8c0.4-1.6,0-2.6-1.2-2.8c-0.7-0.1-1.3-0.1-2,0l-3,0.5L68.1,28
	c-0.8,0.2-1.2,0.4-1.2,0.5s-0.1,0.5-0.3,0.4L65,29.6l-3.2,2L58,33.9l-3.3,2L53.3,37c-0.1,0.7-0.8,1.3-2.1,1.8
	c-1.3,0.8-2.4,1.9-3.3,3.2c-1,1.4-2.1,3.1-3.3,5.1c-1,1.4-1.7,2.9-2.1,4.5c-0.5,1.3-0.5,2.6,0,3.9c0.6,1.4,1.6,2.7,2.8,3.7
	c1.8,1.7,3.7,3.2,5.9,4.3l5.5,3.4c1.4,1,2.8,2.1,4,3.3c0.9,0.7,1.6,1.7,2.1,2.7c0.7,0.9,1.3,2,1.6,3.1c0.3,1,0.5,2,0.6,3
	c0,0.9-0.1,1.8-0.3,2.7c-0.6,1.1-1.4,2.1-2.3,3c-1,1-1.9,1.5-2.6,1.4l-1.5,0.6l-1.2,0.7c-0.8,0.4-1.7,0.6-2.6,0.7L50,88.6L45.4,88.7
	z"/>
<path class="st0" d="M86.5,80.9c-1.2,1.1-2.8,1.8-4.4,2c-1.6,0.1-3.3-0.1-4.8-0.8c-1.6-0.7-2.9-1.8-3.9-3.2c-1-1.3-1.7-2.9-2-4.6
	c-0.3-2.3-0.4-4.5-0.1-6.8c0.2-2.5,1-4.9,2.2-7.1c1.3-2.3,3-4.5,4.9-6.4c1.7-1.6,3.6-3,5.7-3.9c0.6-0.5,1.5-0.8,2.3-0.8l2.9,0.2
	c1.1,0.1,2.1,0.4,3.1,0.8c0.7,0.4,1.3,0.9,1.7,1.5c0.8,0.7,1.4,1.6,1.8,2.6c0.3,0.8,0.5,1.7,0.5,2.6c-0.5,1.8-1.4,3.5-2.7,4.9
	c-1.6,2-3.7,3.5-6,4.6c-1.4,0.5-2.9,0.7-4.4,0.6c-1.4-0.1-2.7-0.5-3.9-1.2c-1.1-0.5-1.9-0.4-2.2,0.2c-0.6,1.5-0.9,3-1,4.6
	c-0.3,2.3-0.1,4,0.5,5c0.5,1,1.4,1.7,2.5,1.9l2.8,0.5c0.9,0,1.8-0.3,2.6-0.8l1.8-1l0.6-0.4l1.1-1.1c0.4-0.3,0.7-0.6,1-1
	c0.2-0.2,0.5-0.3,0.8-0.3c0.3,0,0.6,0.2,0.9,0.4c0.2,0.3,0.4,0.5,0.7,0.6c0.6,0,0.7,0.4,0.4,1.1c-0.5,1-1.2,1.9-2,2.6
	C88.9,79.3,87.8,80.2,86.5,80.9z M86.4,61.7c0.8-0.3,1.5-0.8,2.1-1.3c0.7-0.6,1.3-1.2,1.9-1.9c0.4-0.5,0.7-1.1,0.7-1.8
	c0-0.9-0.5-1.6-1.2-2.1C89.2,54,88,54,86.4,54.4c-0.8,0.3-1.6,0.7-2.3,1.3L81.7,58l-1.8,2.3c-0.4,0.6-0.6,1-0.5,1.2s0.7,0.5,1.6,0.6
	c0.9,0.2,1.9,0.2,2.8,0.2C84.7,62.2,85.6,62,86.4,61.7z"/>
<path class="st0" d="M98.6,80.9c-0.5-0.3-0.9-0.7-1.2-1.2c-0.2-0.8-0.2-1.7,0-2.5c0.2-1.5,0.4-3,0.7-4.5l1.1-4.4
	c0.3-1.3,0.6-2.6,1-3.8c0.6-1.7,1.3-3.6,2.2-5.7s1.7-4,2.5-5.8c0.6-1.4,1.3-2.8,2.2-4.1c0.5-0.4,1.1-0.5,1.7-0.5
	c0.7,0.1,1.3,0.3,1.8,0.8c0.7,0.6,0.8,1.5,0.3,2.9c-0.8,2.2-1.7,4.3-2.7,6.4l-1.7,3.6c-0.3,0.9-0.5,1.3-0.4,1.5s0.3,0.1,0.8-0.2
	c0.5-0.9,1.2-1.7,2-2.3c1-0.9,2-1.8,3.1-2.6l3-2.3l2-1.3l1.7-0.7l1.3-0.5c1.3-0.7,2.8-0.9,4.3-0.8c1.4,0.2,2.4,0.8,2.7,1.7
	c0.2,0.6,0.6,1.1,1.1,1.4c0.2,0,0.4,0.2,0.5,0.6s-0.4,0.6-1,0.7l-2.4,0.3c-0.7,0-1.4,0.2-2.1,0.4l-2.2,0.9l-6.5,3.9
	c-2.2,1.4-4.3,3.1-6.1,5.1l-1.2,1.7l-1.4,2.2c-0.4,0.6-0.7,1.3-0.9,2c-0.3,1-0.6,2-0.8,2.9c-0.1,0.6-0.2,1.1-0.3,1.7
	c-0.2,0.9-0.6,1.8-1.2,2.5c-0.7,1-1.3,1.5-1.8,1.5C100.2,82.4,99.5,81.9,98.6,80.9z"/>
<path class="st0" d="M135.5,81.2l-1.2,0.6c-0.3,0-0.7-0.4-1.4-1s-1.9-3.2-2.4-6.2c-0.6-4.3-0.8-8.7-0.7-13c0.3-2.1,0.4-4.2,0.4-6.3
	c0.1-1.8,0.1-2.7,0.1-3c0.3-0.3,0.7-0.4,1.1-0.4c0.5,0,1,0.1,1.5,0.4c0.6,0.3,1,0.8,1.2,1.4c0.3,1,0.4,2.1,0.4,3.2
	c0.1,1.5,0.1,3.9,0.1,7s-0.2,4.5-0.2,6.3s0,2.8,0.2,3s0.6,0.6,0.9,0.4l1.8-1.7l1.9-2.7l1.7-2.7c0.6-0.8,1.3-1.6,1.8-2.4l1.3-1.6
	c0.2-0.5,0.5-0.9,0.9-1.3l0.9-1.3c0.5-1,1.2-2,2.1-2.8c0.7-0.8,1.2-1.2,1.4-1.2c0.2,0.2,0.4,0.3,0.7,0.2l0.7-0.2
	c0.4-0.4,1-0.4,1.7,0l0.6,0.6c0.2,0.2,0.3,0.4,0.3,0.7c-0.1,0.7-0.4,1.3-0.7,1.9c-0.4,1-0.9,1.9-1.5,2.8c-0.4,0.6-0.8,1.1-1.3,1.6
	l-0.9,0.9l-1.2,2.2l-2.5,3.6c-0.9,1.3-1.9,2.6-3,4l-2.7,3.5c-0.6,0.8-1.3,1.6-2.1,2.2C136.8,80.4,136.2,80.8,135.5,81.2z"/>
<path class="st0" d="M157.6,81.3c-0.9-0.1-1.6-0.8-2.3-1.9c-0.6-1-0.9-2.1-1.1-3.3c0.1-0.4,0.1-1.1,0.2-2l0.3-2.8l1-4.3
	c0.5-1.6,0.9-3.3,1.4-5s0.8-3.1,1.2-4.3c0.2-0.8,0.4-1.5,0.7-2.2c0.3-0.5,0.8-0.6,1.5-0.4c0.6,0.2,1.2,0.6,1.6,1.1
	c0.3,0.5,0.6,1.1,0.7,1.7c0.1,1,0,2-0.3,2.9c-0.3,1.3-0.8,3.2-1.5,5.6s-1.2,4.4-1.5,5.9c-0.3,1.5-0.5,3.1-0.4,4.7
	c-0.1,1.2-0.3,2.5-0.5,3.7C158.5,81.1,158.1,81.4,157.6,81.3C157.6,81.3,157.6,81.3,157.6,81.3z M168.1,45.1l-0.7,0.3l-1.1-0.5
	c-0.6-0.2-1.1-0.5-1.5-0.9c-0.6-0.5-1.2-1-1.7-1.6c-0.4-0.6-0.7-0.9-0.7-1.1c0-0.8,0-1.5,0.2-2.3c0.1-0.9,0.4-1.7,0.9-2.5
	c0.4-0.7,1.2-1.2,2.1-1.2h0.7l1.6,0.6c0.5,1,1,2,1.4,3c0.5,1,0.7,2.2,0.7,3.3C169.9,43.4,169.2,44.5,168.1,45.1z"/>
<path class="st0" d="M179.9,81.8c-0.9,0.4-1.8,0.5-2.7,0.4c-1.4-0.1-2.8-0.5-4.1-1l-0.8-0.3l-1.2-1c-0.4-0.4-0.7-0.8-0.9-1.3
	c-1-1.4-1.4-3.5-1.2-6.2c0.3-3.4,1.2-6.7,2.5-9.8c0.6-1.2,1.3-2.3,2-3.4c0.8-1.4,1.7-2.7,2.6-3.9c0.5-0.7,1.1-1.4,1.8-2l3.6-1.5
	l1-0.4l1.2-0.3h1.1c1.4,0.1,2.7,0.6,3.8,1.3c1.2,0.8,2.3,1.8,3.2,2.9c0.8,0.7,1.1,1.7,0.8,2.7c-0.1,0.3-0.2,0.5-0.5,0.7l-1.1,1
	l-0.9,0.9c-0.2,0.4-0.7,0.6-1.2,0.5c-0.5-0.1-1-0.4-1.4-0.8c-0.4-0.5-0.7-1.1-0.7-1.7c-0.1-0.5-0.9-1.2-2.4-2
	c-0.8,0.2-1.6,0.6-2.1,1.3c-0.9,1-1.7,2-2.5,3.1c-1.2,1.1-2.1,2.4-2.8,3.9c-0.8,1.3-1.4,2.7-1.9,4.1c-0.5,1.3-0.8,2.3-1,2.8
	c-0.2,0.8-0.2,1.7,0,2.5c0.1,1.1,0.3,1.8,0.6,2c0.6,0.2,1.2,0.2,1.8,0.1c1.2-0.1,2.4-0.2,3.6-0.4l4.1-0.8c1.1-0.2,2.2-0.6,3.3-1
	c0.9-0.6,1.9-1,3-1.2h1.9c0.6,0.2,1,0.5,1.1,1s0,0.9-0.4,1.4c-0.6,0.6-1.4,1.2-2.2,1.6c-0.9,0.4-1.8,0.9-2.6,1.5
	c-0.7,0.6-1.1,1.1-1.1,1.4c-0.3,0-0.6,0-0.8,0.2c-0.3,0.1-0.5,0.2-0.7,0.1l-1.4,0.3l-2.6,0.6L179.9,81.8z"/>
<path class="st0" d="M203.9,81.9c-2-0.6-3.7-2.1-4.6-4c-0.7-1.7-0.8-4.4-0.4-8c0.1-1.9,0.2-3.1,0.2-3.7c-0.1-0.7-0.5-1.3-1-1.8
	c-0.3-0.4-0.6-0.7-1-1c-0.4-0.5-0.6-0.8-0.6-1.1c0-0.5,0-0.9,0.1-1.4c0.1-0.5,0.3-0.8,0.6-0.8l0.7-0.2c0.3-0.1,0.5-0.1,0.8,0h0.8
	c0.3,0.1,0.5,0.2,0.5,0.5s0.6,0.4,1.1,0.1c0.8-0.6,1.4-1.4,1.8-2.3c0.7-1.1,1.5-2,2.4-2.9c0.9-1,2-1.9,3-2.7
	c0.8-0.7,1.6-1.3,2.5-1.8l1.3-0.4l2-0.5c0.6-0.1,1.1-0.1,1.7,0c1,0,2,0.3,2.8,0.9c0.8,0.5,1.5,1.1,2.1,1.9c0.8,0.5,1.3,1.2,1.5,2.1
	c0.2,1,0.3,1.9,0.2,2.9c-0.1,1-0.4,1.9-0.9,2.8c-0.3,0.9-0.8,1.6-1.5,2.2c-0.9,0.9-1.8,1.8-2.9,2.5c-0.9,0.7-1.9,1.2-3,1.7l-3,0.4
	c-1.2,0.2-2.3,0.2-3.5,0.2c-0.7,0-1.4-0.1-2.1-0.3c-0.4-0.3-0.8,0.1-1,1c-0.3,1.3-0.4,2.6-0.5,3.9c-0.2,1-0.2,1.9,0,2.9
	c0,0.4,0.2,0.8,0.3,1.2c0.6,0.6,1.2,1.1,1.8,1.6c0.9,0.7,2.2,0.8,3.2,0.3c1.3-0.4,2.5-1.2,3.4-2.3c1-1.1,2-2.1,3.1-3.1
	c0.3-0.4,0.8-0.7,1.3-0.8c0.6-0.1,1.2,0,1.8,0.2c0.6,0.2,1,0.9,0.9,1.5c-0.2,0.9-0.6,1.7-1,2.5c-0.3,0.6-0.7,1.2-1.2,1.6
	c-0.6,0.7-1.3,1.3-2.1,1.9c-0.6,0.6-1.3,1.1-2,1.5c-1.5,0.9-3.3,1.4-5.1,1.5C206.9,82.7,205.3,82.4,203.9,81.9z M209.2,63.5l3.2-0.6
	c0.8-0.2,1.6-0.5,2.3-1c1-1,1.9-2.1,2.7-3.3c0.2-0.6,0.3-1.3,0.2-2c-0.1-0.5-0.2-1-0.5-1.4c-0.5-0.6-1.2-0.8-1.9-0.6
	c-0.8,0.2-1.5,0.6-2.2,1.1c-0.7,0.3-1.3,0.8-1.8,1.3c-0.9,0.7-1.7,1.5-2.4,2.3c-0.7,0.7-1.3,1.5-1.9,2.4c-0.5,0.8-0.6,1.2-0.4,1.3
	s0.2,0.4,1,0.5H209.2z"/>
</svg>
